<svg width="1280" height="720" viewBox="0 0 1280 720" fill="none" xmlns="http://www.w3.org/2000/svg">
<rect width="1280" height="720" fill="url(#paint0_linear_511_8)"/>
<rect x="20" y="18" width="1240" height="686" rx="25" fill="white" fill-opacity="0.5"/>
<rect x="243" y="42" width="320" height="244" rx="12" fill="#FCFCFD"/>
<rect x="243" y="399" width="387" height="280" rx="12" fill="#FCFCFD"/>
<rect x="243" y="301" width="997" height="83" rx="12" fill="#FCFCFD"/>
<rect x="583" y="42" width="320" height="244" rx="12" fill="#FCFCFD"/>
<rect x="650" y="399" width="285" height="280" rx="12" fill="#FCFCFD"/>
<rect x="923" y="42" width="317" height="244" rx="12" fill="#FCFCFD"/>
<rect x="955" y="399" width="285" height="280" rx="12" fill="#FCFCFD"/>
<path d="M40 54C40 47.3726 45.3726 42 52 42H211C217.627 42 223 47.3726 223 54V667C223 673.627 217.627 679 211 679H52C45.3726 679 40 673.627 40 667V54Z" fill="#243642"/>
<path d="M59.1378 79V65.9091H67.8054V68.1911H61.9055V71.3104H67.2301V73.5923H61.9055V79H59.1378ZM72.4348 65.9091V79H69.6671V65.9091H72.4348ZM85.6616 65.9091V79H83.271L77.5756 70.7607H77.4798V79H74.712V65.9091H77.141L82.7915 74.142H82.9066V65.9091H85.6616ZM90.2047 79H87.2388L91.758 65.9091H95.3248L99.8375 79H96.8716L93.5925 68.9006H93.4902L90.2047 79ZM90.0194 73.8544H97.025V76.0149H90.0194V73.8544ZM112.363 65.9091V79H109.972L104.277 70.7607H104.181V79H101.413V65.9091H103.842L109.493 74.142H109.608V65.9091H112.363ZM126.2 70.4922H123.4C123.349 70.13 123.245 69.8082 123.087 69.527C122.929 69.2415 122.727 68.9986 122.48 68.7983C122.233 68.598 121.947 68.4446 121.623 68.3381C121.304 68.2315 120.956 68.1783 120.581 68.1783C119.904 68.1783 119.314 68.3466 118.811 68.6832C118.308 69.0156 117.918 69.5014 117.641 70.1406C117.364 70.7756 117.225 71.5469 117.225 72.4545C117.225 73.3878 117.364 74.1719 117.641 74.8068C117.922 75.4418 118.314 75.9212 118.817 76.245C119.32 76.5689 119.902 76.7308 120.562 76.7308C120.933 76.7308 121.276 76.6818 121.591 76.5838C121.911 76.4858 122.194 76.343 122.441 76.1555C122.689 75.9638 122.893 75.7315 123.055 75.4588C123.221 75.1861 123.336 74.875 123.4 74.5256L126.2 74.5384C126.127 75.1392 125.946 75.7188 125.657 76.277C125.371 76.831 124.985 77.3274 124.5 77.7663C124.018 78.201 123.443 78.5462 122.774 78.8018C122.109 79.0533 121.357 79.179 120.517 79.179C119.35 79.179 118.306 78.9148 117.385 78.3864C116.469 77.858 115.745 77.093 115.212 76.0916C114.684 75.0902 114.419 73.8778 114.419 72.4545C114.419 71.027 114.688 69.8125 115.225 68.8111C115.762 67.8097 116.49 67.0469 117.411 66.5227C118.331 65.9943 119.367 65.7301 120.517 65.7301C121.276 65.7301 121.979 65.8366 122.627 66.0497C123.279 66.2628 123.856 66.5739 124.359 66.983C124.862 67.3878 125.271 67.8842 125.586 68.4723C125.906 69.0604 126.11 69.7337 126.2 70.4922ZM130.952 65.9091V79H128.185V65.9091H130.952ZM135.486 79H132.52L137.039 65.9091H140.606L145.119 79H142.153L138.874 68.9006H138.771L135.486 79ZM135.301 73.8544H142.306V76.0149H135.301V73.8544ZM146.694 79V65.9091H149.462V76.718H155.074V79H146.694ZM61.3942 101H58.4283L62.9474 87.9091H66.5142L71.027 101H68.0611L64.782 90.9006H64.6797L61.3942 101ZM61.2088 95.8544H68.2145V98.0149H61.2088V95.8544ZM83.5522 87.9091V101H81.1616L75.4663 92.7607H75.3704V101H72.6026V87.9091H75.0316L80.6822 96.142H80.7972V87.9091H83.5522ZM88.0953 101H85.1294L89.6486 87.9091H93.2154L97.7282 101H94.7623L91.4831 90.9006H91.3809L88.0953 101ZM87.91 95.8544H94.9157V98.0149H87.91V95.8544ZM99.3038 101V87.9091H102.072V98.718H107.684V101H99.3038ZM107.08 87.9091H110.18L113.165 93.5469H113.293L116.278 87.9091H119.378L114.603 96.3722V101H111.855V96.3722L107.08 87.9091ZM127.991 91.674C127.94 91.1584 127.721 90.7578 127.333 90.4723C126.945 90.1868 126.419 90.044 125.754 90.044C125.302 90.044 124.921 90.108 124.61 90.2358C124.299 90.3594 124.06 90.532 123.894 90.7536C123.732 90.9751 123.651 91.2266 123.651 91.5078C123.643 91.7422 123.692 91.9467 123.798 92.1214C123.909 92.2962 124.06 92.4474 124.252 92.5753C124.444 92.6989 124.665 92.8075 124.917 92.9013C125.168 92.9908 125.437 93.0675 125.722 93.1314L126.898 93.4126C127.469 93.5405 127.993 93.7109 128.471 93.924C128.948 94.1371 129.361 94.3991 129.711 94.7102C130.06 95.0213 130.331 95.3878 130.523 95.8097C130.719 96.2315 130.819 96.7152 130.823 97.2607C130.819 98.0618 130.614 98.7564 130.209 99.3445C129.809 99.9283 129.229 100.382 128.471 100.706C127.716 101.026 126.807 101.185 125.741 101.185C124.684 101.185 123.764 101.023 122.98 100.7C122.2 100.376 121.591 99.8963 121.152 99.2614C120.717 98.6222 120.489 97.8317 120.468 96.8899H123.146C123.176 97.3288 123.302 97.6953 123.523 97.9893C123.749 98.2791 124.05 98.4986 124.425 98.6477C124.804 98.7926 125.232 98.8651 125.709 98.8651C126.178 98.8651 126.585 98.7969 126.93 98.6605C127.28 98.5241 127.55 98.3345 127.742 98.0916C127.934 97.8487 128.03 97.5696 128.03 97.2543C128.03 96.9602 127.942 96.7131 127.768 96.5128C127.597 96.3125 127.346 96.142 127.013 96.0014C126.685 95.8608 126.282 95.733 125.805 95.6179L124.38 95.2599C123.276 94.9915 122.405 94.5717 121.765 94.0007C121.126 93.4297 120.809 92.6605 120.813 91.6932C120.809 90.9006 121.02 90.2081 121.446 89.6158C121.876 89.0234 122.466 88.5611 123.216 88.2287C123.966 87.8963 124.819 87.7301 125.773 87.7301C126.745 87.7301 127.593 87.8963 128.317 88.2287C129.046 88.5611 129.613 89.0234 130.018 89.6158C130.422 90.2081 130.631 90.8942 130.644 91.674H127.991ZM135.452 87.9091V101H132.685V87.9091H135.452ZM144.831 91.674C144.78 91.1584 144.561 90.7578 144.173 90.4723C143.785 90.1868 143.259 90.044 142.594 90.044C142.142 90.044 141.761 90.108 141.45 90.2358C141.139 90.3594 140.9 90.532 140.734 90.7536C140.572 90.9751 140.491 91.2266 140.491 91.5078C140.482 91.7422 140.531 91.9467 140.638 92.1214C140.749 92.2962 140.9 92.4474 141.092 92.5753C141.284 92.6989 141.505 92.8075 141.757 92.9013C142.008 92.9908 142.276 93.0675 142.562 93.1314L143.738 93.4126C144.309 93.5405 144.833 93.7109 145.311 93.924C145.788 94.1371 146.201 94.3991 146.551 94.7102C146.9 95.0213 147.171 95.3878 147.362 95.8097C147.558 96.2315 147.659 96.7152 147.663 97.2607C147.659 98.0618 147.454 98.7564 147.049 99.3445C146.649 99.9283 146.069 100.382 145.311 100.706C144.556 101.026 143.646 101.185 142.581 101.185C141.524 101.185 140.604 101.023 139.82 100.7C139.04 100.376 138.431 99.8963 137.992 99.2614C137.557 98.6222 137.329 97.8317 137.308 96.8899H139.986C140.016 97.3288 140.142 97.6953 140.363 97.9893C140.589 98.2791 140.889 98.4986 141.264 98.6477C141.644 98.7926 142.072 98.8651 142.549 98.8651C143.018 98.8651 143.425 98.7969 143.77 98.6605C144.119 98.5241 144.39 98.3345 144.582 98.0916C144.774 97.8487 144.869 97.5696 144.869 97.2543C144.869 96.9602 144.782 96.7131 144.607 96.5128C144.437 96.3125 144.186 96.142 143.853 96.0014C143.525 95.8608 143.122 95.733 142.645 95.6179L141.22 95.2599C140.116 94.9915 139.244 94.5717 138.605 94.0007C137.966 93.4297 137.649 92.6605 137.653 91.6932C137.649 90.9006 137.86 90.2081 138.286 89.6158C138.716 89.0234 139.306 88.5611 140.056 88.2287C140.806 87.8963 141.659 87.7301 142.613 87.7301C143.585 87.7301 144.433 87.8963 145.157 88.2287C145.886 88.5611 146.453 89.0234 146.857 89.6158C147.262 90.2081 147.471 90.8942 147.484 91.674H144.831ZM63.7784 123H59.1378V109.909H63.8168C65.1335 109.909 66.267 110.171 67.2173 110.695C68.1676 111.215 68.8984 111.963 69.4098 112.939C69.9254 113.915 70.1832 115.082 70.1832 116.442C70.1832 117.805 69.9254 118.977 69.4098 119.957C68.8984 120.937 68.1634 121.69 67.2045 122.214C66.25 122.738 65.108 123 63.7784 123ZM61.9055 120.629H63.6634C64.4815 120.629 65.1697 120.484 65.728 120.194C66.2905 119.9 66.7124 119.446 66.9936 118.832C67.2791 118.214 67.4219 117.418 67.4219 116.442C67.4219 115.474 67.2791 114.684 66.9936 114.07C66.7124 113.457 66.2926 113.005 65.7344 112.715C65.1761 112.425 64.4879 112.281 63.6697 112.281H61.9055V120.629ZM73.7516 123H70.7857L75.3049 109.909H78.8716L83.3844 123H80.4185L77.1394 112.901H77.0371L73.7516 123ZM73.5662 117.854H80.5719V120.015H73.5662V117.854ZM91.7628 113.674C91.7116 113.158 91.4922 112.758 91.1044 112.472C90.7166 112.187 90.1903 112.044 89.5256 112.044C89.0739 112.044 88.6925 112.108 88.3814 112.236C88.0703 112.359 87.8317 112.532 87.6655 112.754C87.5036 112.975 87.4226 113.227 87.4226 113.508C87.4141 113.742 87.4631 113.947 87.5696 114.121C87.6804 114.296 87.8317 114.447 88.0234 114.575C88.2152 114.699 88.4368 114.808 88.6882 114.901C88.9396 114.991 89.2081 115.067 89.4936 115.131L90.6697 115.413C91.2408 115.54 91.7649 115.711 92.2422 115.924C92.7195 116.137 93.1328 116.399 93.4822 116.71C93.8317 117.021 94.1023 117.388 94.294 117.81C94.4901 118.232 94.5902 118.715 94.5945 119.261C94.5902 120.062 94.3857 120.756 93.9808 121.344C93.5803 121.928 93.0007 122.382 92.2422 122.706C91.4879 123.026 90.5781 123.185 89.5128 123.185C88.456 123.185 87.5355 123.023 86.7514 122.7C85.9716 122.376 85.3622 121.896 84.9233 121.261C84.4886 120.622 84.2607 119.832 84.2393 118.89H86.9176C86.9474 119.329 87.0732 119.695 87.2947 119.989C87.5206 120.279 87.821 120.499 88.196 120.648C88.5753 120.793 89.0036 120.865 89.4808 120.865C89.9496 120.865 90.3565 120.797 90.7017 120.661C91.0511 120.524 91.3217 120.335 91.5135 120.092C91.7053 119.849 91.8011 119.57 91.8011 119.254C91.8011 118.96 91.7138 118.713 91.5391 118.513C91.3686 118.312 91.1172 118.142 90.7848 118.001C90.4567 117.861 90.054 117.733 89.5767 117.618L88.1513 117.26C87.0476 116.991 86.1761 116.572 85.5369 116.001C84.8977 115.43 84.5803 114.661 84.5845 113.693C84.5803 112.901 84.7912 112.208 85.2173 111.616C85.6477 111.023 86.2379 110.561 86.9879 110.229C87.7379 109.896 88.5902 109.73 89.5447 109.73C90.5163 109.73 91.3643 109.896 92.0888 110.229C92.8175 110.561 93.3842 111.023 93.7891 111.616C94.1939 112.208 94.4027 112.894 94.4155 113.674H91.7628ZM96.4561 123V109.909H99.2239V115.31H104.843V109.909H107.604V123H104.843V117.592H99.2239V123H96.4561ZM109.886 123V109.909H115.127C116.09 109.909 116.894 110.052 117.537 110.337C118.181 110.623 118.664 111.019 118.988 111.526C119.312 112.029 119.474 112.609 119.474 113.265C119.474 113.776 119.372 114.226 119.167 114.614C118.963 114.997 118.681 115.312 118.323 115.56C117.97 115.803 117.565 115.975 117.109 116.077V116.205C117.607 116.227 118.074 116.367 118.509 116.627C118.948 116.887 119.303 117.251 119.576 117.72C119.849 118.185 119.985 118.739 119.985 119.382C119.985 120.077 119.813 120.697 119.468 121.242C119.127 121.783 118.622 122.212 117.953 122.527C117.284 122.842 116.459 123 115.479 123H109.886ZM112.654 120.737H114.91C115.681 120.737 116.244 120.59 116.597 120.296C116.951 119.998 117.128 119.602 117.128 119.107C117.128 118.745 117.041 118.425 116.866 118.148C116.691 117.871 116.442 117.654 116.118 117.496C115.798 117.339 115.417 117.26 114.974 117.26H112.654V120.737ZM112.654 115.387H114.705C115.085 115.387 115.421 115.321 115.715 115.189C116.014 115.053 116.248 114.861 116.419 114.614C116.593 114.366 116.681 114.07 116.681 113.725C116.681 113.252 116.512 112.871 116.176 112.581C115.843 112.291 115.37 112.146 114.757 112.146H112.654V115.387ZM133.816 116.455C133.816 117.882 133.545 119.097 133.004 120.098C132.467 121.099 131.734 121.864 130.805 122.393C129.881 122.917 128.841 123.179 127.686 123.179C126.523 123.179 125.479 122.915 124.554 122.386C123.629 121.858 122.898 121.093 122.362 120.092C121.825 119.09 121.556 117.878 121.556 116.455C121.556 115.027 121.825 113.812 122.362 112.811C122.898 111.81 123.629 111.047 124.554 110.523C125.479 109.994 126.523 109.73 127.686 109.73C128.841 109.73 129.881 109.994 130.805 110.523C131.734 111.047 132.467 111.81 133.004 112.811C133.545 113.812 133.816 115.027 133.816 116.455ZM131.01 116.455C131.01 115.53 130.871 114.75 130.594 114.115C130.322 113.48 129.936 112.999 129.438 112.67C128.939 112.342 128.355 112.178 127.686 112.178C127.017 112.178 126.433 112.342 125.935 112.67C125.436 112.999 125.048 113.48 124.771 114.115C124.499 114.75 124.362 115.53 124.362 116.455C124.362 117.379 124.499 118.159 124.771 118.794C125.048 119.429 125.436 119.911 125.935 120.239C126.433 120.567 127.017 120.731 127.686 120.731C128.355 120.731 128.939 120.567 129.438 120.239C129.936 119.911 130.322 119.429 130.594 118.794C130.871 118.159 131.01 117.379 131.01 116.455ZM137.384 123H134.419L138.938 109.909H142.504L147.017 123H144.051L140.772 112.901H140.67L137.384 123ZM137.199 117.854H144.205V120.015H137.199V117.854ZM148.593 123V109.909H153.758C154.746 109.909 155.59 110.086 156.289 110.44C156.992 110.789 157.527 111.286 157.893 111.929C158.264 112.568 158.449 113.32 158.449 114.185C158.449 115.055 158.262 115.803 157.887 116.429C157.512 117.051 156.969 117.528 156.257 117.861C155.55 118.193 154.693 118.359 153.687 118.359H150.229V116.135H153.24C153.768 116.135 154.207 116.062 154.557 115.918C154.906 115.773 155.166 115.555 155.336 115.266C155.511 114.976 155.599 114.616 155.599 114.185C155.599 113.751 155.511 113.384 155.336 113.086C155.166 112.788 154.904 112.562 154.55 112.408C154.201 112.251 153.76 112.172 153.227 112.172H151.361V123H148.593ZM155.662 117.043L158.916 123H155.861L152.677 117.043H155.662ZM165.046 123H160.405V109.909H165.084C166.401 109.909 167.535 110.171 168.485 110.695C169.435 111.215 170.166 111.963 170.677 112.939C171.193 113.915 171.451 115.082 171.451 116.442C171.451 117.805 171.193 118.977 170.677 119.957C170.166 120.937 169.431 121.69 168.472 122.214C167.518 122.738 166.376 123 165.046 123ZM163.173 120.629H164.931C165.749 120.629 166.437 120.484 166.996 120.194C167.558 119.9 167.98 119.446 168.261 118.832C168.547 118.214 168.689 117.418 168.689 116.442C168.689 115.474 168.547 114.684 168.261 114.07C167.98 113.457 167.56 113.005 167.002 112.715C166.444 112.425 165.756 112.281 164.937 112.281H163.173V120.629Z" fill="white"/>
<path d="M58.9034 147V146.233L61.7841 143.08C62.1222 142.71 62.4006 142.389 62.6193 142.116C62.8381 141.841 63 141.582 63.1051 141.341C63.2131 141.097 63.267 140.841 63.267 140.574C63.267 140.267 63.1932 140.001 63.0455 139.777C62.9006 139.553 62.7017 139.379 62.4489 139.257C62.196 139.135 61.9119 139.074 61.5966 139.074C61.2614 139.074 60.9688 139.143 60.7188 139.283C60.4716 139.419 60.2798 139.611 60.1435 139.858C60.0099 140.105 59.9432 140.395 59.9432 140.727H58.9375C58.9375 140.216 59.0554 139.767 59.2912 139.381C59.527 138.994 59.848 138.693 60.2543 138.477C60.6634 138.261 61.1222 138.153 61.6307 138.153C62.142 138.153 62.5952 138.261 62.9901 138.477C63.3849 138.693 63.6946 138.984 63.919 139.351C64.1435 139.717 64.2557 140.125 64.2557 140.574C64.2557 140.895 64.1974 141.209 64.081 141.516C63.9673 141.82 63.7685 142.159 63.4844 142.534C63.2031 142.906 62.8125 143.361 62.3125 143.898L60.3523 145.994V146.062H64.4091V147H58.9034ZM69.0156 147.119C68.3736 147.119 67.8267 146.945 67.375 146.595C66.9233 146.243 66.5781 145.733 66.3395 145.065C66.1009 144.395 65.9815 143.585 65.9815 142.636C65.9815 141.693 66.1009 140.888 66.3395 140.22C66.581 139.55 66.9276 139.038 67.3793 138.686C67.8338 138.331 68.3793 138.153 69.0156 138.153C69.652 138.153 70.196 138.331 70.6477 138.686C71.1023 139.038 71.4489 139.55 71.6875 140.22C71.929 140.888 72.0497 141.693 72.0497 142.636C72.0497 143.585 71.9304 144.395 71.6918 145.065C71.4531 145.733 71.108 146.243 70.6562 146.595C70.2045 146.945 69.6577 147.119 69.0156 147.119ZM69.0156 146.182C69.652 146.182 70.1463 145.875 70.4986 145.261C70.8509 144.648 71.027 143.773 71.027 142.636C71.027 141.881 70.946 141.237 70.7841 140.706C70.625 140.175 70.3949 139.77 70.0938 139.491C69.7955 139.213 69.4361 139.074 69.0156 139.074C68.3849 139.074 67.892 139.385 67.5369 140.007C67.1818 140.626 67.0043 141.503 67.0043 142.636C67.0043 143.392 67.0838 144.034 67.2429 144.562C67.402 145.091 67.6307 145.493 67.929 145.768C68.2301 146.044 68.5923 146.182 69.0156 146.182ZM73.669 147V146.233L76.5497 143.08C76.8878 142.71 77.1662 142.389 77.3849 142.116C77.6037 141.841 77.7656 141.582 77.8707 141.341C77.9787 141.097 78.0327 140.841 78.0327 140.574C78.0327 140.267 77.9588 140.001 77.8111 139.777C77.6662 139.553 77.4673 139.379 77.2145 139.257C76.9616 139.135 76.6776 139.074 76.3622 139.074C76.027 139.074 75.7344 139.143 75.4844 139.283C75.2372 139.419 75.0455 139.611 74.9091 139.858C74.7756 140.105 74.7088 140.395 74.7088 140.727H73.7031C73.7031 140.216 73.821 139.767 74.0568 139.381C74.2926 138.994 74.6136 138.693 75.0199 138.477C75.429 138.261 75.8878 138.153 76.3963 138.153C76.9077 138.153 77.3608 138.261 77.7557 138.477C78.1506 138.693 78.4602 138.984 78.6847 139.351C78.9091 139.717 79.0213 140.125 79.0213 140.574C79.0213 140.895 78.9631 141.209 78.8466 141.516C78.733 141.82 78.5341 142.159 78.25 142.534C77.9688 142.906 77.5781 143.361 77.0781 143.898L75.1179 145.994V146.062H79.1747V147H73.669ZM83.8835 147.119C83.321 147.119 82.8196 147.023 82.3793 146.83C81.9418 146.636 81.5938 146.368 81.3352 146.024C81.0795 145.678 80.9403 145.276 80.9176 144.818H81.9915C82.0142 145.099 82.1108 145.342 82.2812 145.547C82.4517 145.749 82.6747 145.905 82.9503 146.016C83.2259 146.126 83.5313 146.182 83.8665 146.182C84.2415 146.182 84.5739 146.116 84.8636 145.986C85.1534 145.855 85.3807 145.673 85.5455 145.44C85.7102 145.207 85.7926 144.938 85.7926 144.631C85.7926 144.31 85.7131 144.027 85.554 143.783C85.3949 143.536 85.1619 143.342 84.8551 143.203C84.5483 143.064 84.1733 142.994 83.7301 142.994H83.0312V142.057H83.7301C84.0767 142.057 84.3807 141.994 84.642 141.869C84.9063 141.744 85.1122 141.568 85.2599 141.341C85.4105 141.114 85.4858 140.847 85.4858 140.54C85.4858 140.244 85.4205 139.987 85.2898 139.768C85.1591 139.55 84.9744 139.379 84.7358 139.257C84.5 139.135 84.2216 139.074 83.9006 139.074C83.5994 139.074 83.3153 139.129 83.0483 139.24C82.7841 139.348 82.5682 139.506 82.4006 139.713C82.233 139.918 82.142 140.165 82.1278 140.455H81.1051C81.1222 139.997 81.2599 139.597 81.5185 139.253C81.777 138.906 82.1151 138.636 82.5327 138.443C82.9531 138.25 83.4148 138.153 83.9176 138.153C84.4574 138.153 84.9205 138.263 85.3068 138.482C85.6932 138.697 85.9901 138.983 86.1974 139.338C86.4048 139.693 86.5085 140.077 86.5085 140.489C86.5085 140.98 86.3793 141.399 86.1207 141.746C85.8651 142.092 85.517 142.332 85.0767 142.466V142.534C85.6278 142.625 86.0582 142.859 86.3679 143.237C86.6776 143.612 86.8324 144.077 86.8324 144.631C86.8324 145.105 86.7031 145.531 86.4446 145.909C86.1889 146.284 85.8395 146.58 85.3963 146.795C84.9531 147.011 84.4489 147.119 83.8835 147.119ZM95.7173 142.168V143.105H91.8991V142.168H95.7173ZM100.845 147V146.233L103.725 143.08C104.064 142.71 104.342 142.389 104.561 142.116C104.779 141.841 104.941 141.582 105.047 141.341C105.154 141.097 105.208 140.841 105.208 140.574C105.208 140.267 105.135 140.001 104.987 139.777C104.842 139.553 104.643 139.379 104.39 139.257C104.137 139.135 103.853 139.074 103.538 139.074C103.203 139.074 102.91 139.143 102.66 139.283C102.413 139.419 102.221 139.611 102.085 139.858C101.951 140.105 101.885 140.395 101.885 140.727H100.879C100.879 140.216 100.997 139.767 101.233 139.381C101.468 138.994 101.789 138.693 102.196 138.477C102.605 138.261 103.064 138.153 103.572 138.153C104.083 138.153 104.537 138.261 104.931 138.477C105.326 138.693 105.636 138.984 105.86 139.351C106.085 139.717 106.197 140.125 106.197 140.574C106.197 140.895 106.139 141.209 106.022 141.516C105.909 141.82 105.71 142.159 105.426 142.534C105.145 142.906 104.754 143.361 104.254 143.898L102.294 145.994V146.062H106.35V147H100.845ZM110.957 147.119C110.315 147.119 109.768 146.945 109.316 146.595C108.865 146.243 108.52 145.733 108.281 145.065C108.042 144.395 107.923 143.585 107.923 142.636C107.923 141.693 108.042 140.888 108.281 140.22C108.522 139.55 108.869 139.038 109.321 138.686C109.775 138.331 110.321 138.153 110.957 138.153C111.593 138.153 112.137 138.331 112.589 138.686C113.044 139.038 113.39 139.55 113.629 140.22C113.87 140.888 113.991 141.693 113.991 142.636C113.991 143.585 113.872 144.395 113.633 145.065C113.395 145.733 113.049 146.243 112.598 146.595C112.146 146.945 111.599 147.119 110.957 147.119ZM110.957 146.182C111.593 146.182 112.088 145.875 112.44 145.261C112.792 144.648 112.968 143.773 112.968 142.636C112.968 141.881 112.887 141.237 112.725 140.706C112.566 140.175 112.336 139.77 112.035 139.491C111.737 139.213 111.377 139.074 110.957 139.074C110.326 139.074 109.833 139.385 109.478 140.007C109.123 140.626 108.946 141.503 108.946 142.636C108.946 143.392 109.025 144.034 109.184 144.562C109.343 145.091 109.572 145.493 109.87 145.768C110.172 146.044 110.534 146.182 110.957 146.182ZM115.61 147V146.233L118.491 143.08C118.829 142.71 119.108 142.389 119.326 142.116C119.545 141.841 119.707 141.582 119.812 141.341C119.92 141.097 119.974 140.841 119.974 140.574C119.974 140.267 119.9 140.001 119.752 139.777C119.608 139.553 119.409 139.379 119.156 139.257C118.903 139.135 118.619 139.074 118.304 139.074C117.968 139.074 117.676 139.143 117.426 139.283C117.179 139.419 116.987 139.611 116.85 139.858C116.717 140.105 116.65 140.395 116.65 140.727H115.645C115.645 140.216 115.762 139.767 115.998 139.381C116.234 138.994 116.555 138.693 116.961 138.477C117.37 138.261 117.829 138.153 118.338 138.153C118.849 138.153 119.302 138.261 119.697 138.477C120.092 138.693 120.402 138.984 120.626 139.351C120.85 139.717 120.963 140.125 120.963 140.574C120.963 140.895 120.904 141.209 120.788 141.516C120.674 141.82 120.475 142.159 120.191 142.534C119.91 142.906 119.52 143.361 119.02 143.898L117.059 145.994V146.062H121.116V147H115.61ZM122.484 145.21V144.341L126.319 138.273H126.95V139.619H126.524L123.626 144.205V144.273H128.791V145.21H122.484ZM126.592 147V144.946V144.541V138.273H127.598V147H126.592Z" fill="#6B93AE"/>
<defs>
<linearGradient id="paint0_linear_511_8" x1="1280" y1="707.5" x2="-30.0001" y2="0.000148091" gradientUnits="userSpaceOnUse">
<stop stop-color="#387478"/>
<stop offset="1" stop-color="#E2F1E7"/>
</linearGradient>
</defs>
</svg>
