<svg width="1280" height="720" viewBox="0 0 1280 720" fill="none" xmlns="http://www.w3.org/2000/svg">
<rect width="1280" height="720" fill="url(#paint0_linear_540_8)"/>
<rect x="20" y="18" width="1240" height="686" rx="25" fill="white" fill-opacity="0.5"/>
<path d="M40 54C40 47.3726 45.3726 42 52 42H211C217.627 42 223 47.3726 223 54V667C223 673.627 217.627 679 211 679H52C45.3726 679 40 673.627 40 667V54Z" fill="#243642"/>
<path d="M59.1378 90V76.9091H64.3026C65.2955 76.9091 66.1413 77.0987 66.8402 77.478C67.5391 77.853 68.0717 78.375 68.4382 79.044C68.8089 79.7088 68.9943 80.4759 68.9943 81.3452C68.9943 82.2145 68.8068 82.9815 68.4318 83.6463C68.0568 84.3111 67.5135 84.8288 66.8018 85.1996C66.0945 85.5703 65.2379 85.7557 64.2322 85.7557H60.9403V83.5376H63.7848C64.3175 83.5376 64.7564 83.446 65.1016 83.2628C65.451 83.0753 65.7109 82.8175 65.8814 82.4893C66.0561 82.157 66.1435 81.7756 66.1435 81.3452C66.1435 80.9105 66.0561 80.5312 65.8814 80.2074C65.7109 79.8793 65.451 79.6257 65.1016 79.4467C64.7521 79.2635 64.3089 79.1719 63.772 79.1719H61.9055V90H59.1378ZM70.7921 90V76.9091H75.9569C76.9455 76.9091 77.7892 77.0859 78.4881 77.4396C79.1912 77.7891 79.726 78.2855 80.0925 78.929C80.4632 79.5682 80.6486 80.3203 80.6486 81.1854C80.6486 82.0547 80.4611 82.8026 80.0861 83.429C79.7111 84.0511 79.1678 84.5284 78.4561 84.8608C77.7488 85.1932 76.8922 85.3594 75.8865 85.3594H72.4284V83.1349H75.4391C75.9675 83.1349 76.4064 83.0625 76.7559 82.9176C77.1053 82.7727 77.3652 82.5554 77.5357 82.2656C77.7104 81.9759 77.7978 81.6158 77.7978 81.1854C77.7978 80.7507 77.7104 80.3842 77.5357 80.0859C77.3652 79.7876 77.1032 79.5618 76.7495 79.4084C76.4 79.2507 75.959 79.1719 75.4263 79.1719H73.5598V90H70.7921ZM77.8617 84.0426L81.1152 90H78.0598L74.8766 84.0426H77.8617ZM85.3723 76.9091V90H82.6046V76.9091H85.3723ZM99.1999 81.4922H96.4002C96.3491 81.13 96.2447 80.8082 96.087 80.527C95.9293 80.2415 95.7269 79.9986 95.4798 79.7983C95.2326 79.598 94.9471 79.4446 94.6232 79.3381C94.3036 79.2315 93.9563 79.1783 93.5813 79.1783C92.9038 79.1783 92.3136 79.3466 91.8107 79.6832C91.3079 80.0156 90.918 80.5014 90.641 81.1406C90.364 81.7756 90.2255 82.5469 90.2255 83.4545C90.2255 84.3878 90.364 85.1719 90.641 85.8068C90.9222 86.4418 91.3143 86.9212 91.8171 87.245C92.32 87.5689 92.9016 87.7308 93.5621 87.7308C93.9329 87.7308 94.2759 87.6818 94.5913 87.5838C94.9109 87.4858 95.1942 87.343 95.4414 87.1555C95.6886 86.9638 95.8931 86.7315 96.055 86.4588C96.2212 86.1861 96.3363 85.875 96.4002 85.5256L99.1999 85.5384C99.1275 86.1392 98.9464 86.7188 98.6566 87.277C98.3711 87.831 97.9854 88.3274 97.4996 88.7663C97.0181 89.201 96.4428 89.5462 95.7738 89.8018C95.109 90.0533 94.3569 90.179 93.5174 90.179C92.3498 90.179 91.3058 89.9148 90.3853 89.3864C89.4691 88.858 88.7447 88.093 88.212 87.0916C87.6836 86.0902 87.4194 84.8778 87.4194 83.4545C87.4194 82.027 87.6879 80.8125 88.2248 79.8111C88.7617 78.8097 89.4904 78.0469 90.4109 77.5227C91.3313 76.9943 92.3668 76.7301 93.5174 76.7301C94.2759 76.7301 94.979 76.8366 95.6268 77.0497C96.2788 77.2628 96.8562 77.5739 97.359 77.983C97.8619 78.3878 98.271 78.8842 98.5863 79.4723C98.9059 80.0604 99.1104 80.7337 99.1999 81.4922ZM101.185 90V76.9091H110.006V79.1911H103.952V82.3104H109.552V84.5923H103.952V87.718H110.031V90H101.185ZM61.3942 112H58.4283L62.9474 98.9091H66.5142L71.027 112H68.0611L64.782 101.901H64.6797L61.3942 112ZM61.2088 106.854H68.2145V109.015H61.2088V106.854ZM83.5522 98.9091V112H81.1616L75.4663 103.761H75.3704V112H72.6026V98.9091H75.0316L80.6822 107.142H80.7972V98.9091H83.5522ZM88.0953 112H85.1294L89.6486 98.9091H93.2154L97.7282 112H94.7623L91.4831 101.901H91.3809L88.0953 112ZM87.91 106.854H94.9157V109.015H87.91V106.854ZM99.3038 112V98.9091H102.072V109.718H107.684V112H99.3038ZM107.08 98.9091H110.18L113.165 104.547H113.293L116.278 98.9091H119.378L114.603 107.372V112H111.855V107.372L107.08 98.9091ZM127.991 102.674C127.94 102.158 127.721 101.758 127.333 101.472C126.945 101.187 126.419 101.044 125.754 101.044C125.302 101.044 124.921 101.108 124.61 101.236C124.299 101.359 124.06 101.532 123.894 101.754C123.732 101.975 123.651 102.227 123.651 102.508C123.643 102.742 123.692 102.947 123.798 103.121C123.909 103.296 124.06 103.447 124.252 103.575C124.444 103.699 124.665 103.808 124.917 103.901C125.168 103.991 125.437 104.067 125.722 104.131L126.898 104.413C127.469 104.54 127.993 104.711 128.471 104.924C128.948 105.137 129.361 105.399 129.711 105.71C130.06 106.021 130.331 106.388 130.523 106.81C130.719 107.232 130.819 107.715 130.823 108.261C130.819 109.062 130.614 109.756 130.209 110.344C129.809 110.928 129.229 111.382 128.471 111.706C127.716 112.026 126.807 112.185 125.741 112.185C124.684 112.185 123.764 112.023 122.98 111.7C122.2 111.376 121.591 110.896 121.152 110.261C120.717 109.622 120.489 108.832 120.468 107.89H123.146C123.176 108.329 123.302 108.695 123.523 108.989C123.749 109.279 124.05 109.499 124.425 109.648C124.804 109.793 125.232 109.865 125.709 109.865C126.178 109.865 126.585 109.797 126.93 109.661C127.28 109.524 127.55 109.335 127.742 109.092C127.934 108.849 128.03 108.57 128.03 108.254C128.03 107.96 127.942 107.713 127.768 107.513C127.597 107.312 127.346 107.142 127.013 107.001C126.685 106.861 126.282 106.733 125.805 106.618L124.38 106.26C123.276 105.991 122.405 105.572 121.765 105.001C121.126 104.43 120.809 103.661 120.813 102.693C120.809 101.901 121.02 101.208 121.446 100.616C121.876 100.023 122.466 99.5611 123.216 99.2287C123.966 98.8963 124.819 98.7301 125.773 98.7301C126.745 98.7301 127.593 98.8963 128.317 99.2287C129.046 99.5611 129.613 100.023 130.018 100.616C130.422 101.208 130.631 101.894 130.644 102.674H127.991ZM135.452 98.9091V112H132.685V98.9091H135.452ZM144.831 102.674C144.78 102.158 144.561 101.758 144.173 101.472C143.785 101.187 143.259 101.044 142.594 101.044C142.142 101.044 141.761 101.108 141.45 101.236C141.139 101.359 140.9 101.532 140.734 101.754C140.572 101.975 140.491 102.227 140.491 102.508C140.482 102.742 140.531 102.947 140.638 103.121C140.749 103.296 140.9 103.447 141.092 103.575C141.284 103.699 141.505 103.808 141.757 103.901C142.008 103.991 142.276 104.067 142.562 104.131L143.738 104.413C144.309 104.54 144.833 104.711 145.311 104.924C145.788 105.137 146.201 105.399 146.551 105.71C146.9 106.021 147.171 106.388 147.362 106.81C147.558 107.232 147.659 107.715 147.663 108.261C147.659 109.062 147.454 109.756 147.049 110.344C146.649 110.928 146.069 111.382 145.311 111.706C144.556 112.026 143.646 112.185 142.581 112.185C141.524 112.185 140.604 112.023 139.82 111.7C139.04 111.376 138.431 110.896 137.992 110.261C137.557 109.622 137.329 108.832 137.308 107.89H139.986C140.016 108.329 140.142 108.695 140.363 108.989C140.589 109.279 140.889 109.499 141.264 109.648C141.644 109.793 142.072 109.865 142.549 109.865C143.018 109.865 143.425 109.797 143.77 109.661C144.119 109.524 144.39 109.335 144.582 109.092C144.774 108.849 144.869 108.57 144.869 108.254C144.869 107.96 144.782 107.713 144.607 107.513C144.437 107.312 144.186 107.142 143.853 107.001C143.525 106.861 143.122 106.733 142.645 106.618L141.22 106.26C140.116 105.991 139.244 105.572 138.605 105.001C137.966 104.43 137.649 103.661 137.653 102.693C137.649 101.901 137.86 101.208 138.286 100.616C138.716 100.023 139.306 99.5611 140.056 99.2287C140.806 98.8963 141.659 98.7301 142.613 98.7301C143.585 98.7301 144.433 98.8963 145.157 99.2287C145.886 99.5611 146.453 100.023 146.857 100.616C147.262 101.208 147.471 101.894 147.484 102.674H144.831Z" fill="white"/>
<path d="M58.9034 147V146.233L61.7841 143.08C62.1222 142.71 62.4006 142.389 62.6193 142.116C62.8381 141.841 63 141.582 63.1051 141.341C63.2131 141.097 63.267 140.841 63.267 140.574C63.267 140.267 63.1932 140.001 63.0455 139.777C62.9006 139.553 62.7017 139.379 62.4489 139.257C62.196 139.135 61.9119 139.074 61.5966 139.074C61.2614 139.074 60.9688 139.143 60.7188 139.283C60.4716 139.419 60.2798 139.611 60.1435 139.858C60.0099 140.105 59.9432 140.395 59.9432 140.727H58.9375C58.9375 140.216 59.0554 139.767 59.2912 139.381C59.527 138.994 59.848 138.693 60.2543 138.477C60.6634 138.261 61.1222 138.153 61.6307 138.153C62.142 138.153 62.5952 138.261 62.9901 138.477C63.3849 138.693 63.6946 138.984 63.919 139.351C64.1435 139.717 64.2557 140.125 64.2557 140.574C64.2557 140.895 64.1974 141.209 64.081 141.516C63.9673 141.82 63.7685 142.159 63.4844 142.534C63.2031 142.906 62.8125 143.361 62.3125 143.898L60.3523 145.994V146.062H64.4091V147H58.9034ZM69.0156 147.119C68.3736 147.119 67.8267 146.945 67.375 146.595C66.9233 146.243 66.5781 145.733 66.3395 145.065C66.1009 144.395 65.9815 143.585 65.9815 142.636C65.9815 141.693 66.1009 140.888 66.3395 140.22C66.581 139.55 66.9276 139.038 67.3793 138.686C67.8338 138.331 68.3793 138.153 69.0156 138.153C69.652 138.153 70.196 138.331 70.6477 138.686C71.1023 139.038 71.4489 139.55 71.6875 140.22C71.929 140.888 72.0497 141.693 72.0497 142.636C72.0497 143.585 71.9304 144.395 71.6918 145.065C71.4531 145.733 71.108 146.243 70.6562 146.595C70.2045 146.945 69.6577 147.119 69.0156 147.119ZM69.0156 146.182C69.652 146.182 70.1463 145.875 70.4986 145.261C70.8509 144.648 71.027 143.773 71.027 142.636C71.027 141.881 70.946 141.237 70.7841 140.706C70.625 140.175 70.3949 139.77 70.0938 139.491C69.7955 139.213 69.4361 139.074 69.0156 139.074C68.3849 139.074 67.892 139.385 67.5369 140.007C67.1818 140.626 67.0043 141.503 67.0043 142.636C67.0043 143.392 67.0838 144.034 67.2429 144.562C67.402 145.091 67.6307 145.493 67.929 145.768C68.2301 146.044 68.5923 146.182 69.0156 146.182ZM73.669 147V146.233L76.5497 143.08C76.8878 142.71 77.1662 142.389 77.3849 142.116C77.6037 141.841 77.7656 141.582 77.8707 141.341C77.9787 141.097 78.0327 140.841 78.0327 140.574C78.0327 140.267 77.9588 140.001 77.8111 139.777C77.6662 139.553 77.4673 139.379 77.2145 139.257C76.9616 139.135 76.6776 139.074 76.3622 139.074C76.027 139.074 75.7344 139.143 75.4844 139.283C75.2372 139.419 75.0455 139.611 74.9091 139.858C74.7756 140.105 74.7088 140.395 74.7088 140.727H73.7031C73.7031 140.216 73.821 139.767 74.0568 139.381C74.2926 138.994 74.6136 138.693 75.0199 138.477C75.429 138.261 75.8878 138.153 76.3963 138.153C76.9077 138.153 77.3608 138.261 77.7557 138.477C78.1506 138.693 78.4602 138.984 78.6847 139.351C78.9091 139.717 79.0213 140.125 79.0213 140.574C79.0213 140.895 78.9631 141.209 78.8466 141.516C78.733 141.82 78.5341 142.159 78.25 142.534C77.9688 142.906 77.5781 143.361 77.0781 143.898L75.1179 145.994V146.062H79.1747V147H73.669ZM83.8835 147.119C83.321 147.119 82.8196 147.023 82.3793 146.83C81.9418 146.636 81.5938 146.368 81.3352 146.024C81.0795 145.678 80.9403 145.276 80.9176 144.818H81.9915C82.0142 145.099 82.1108 145.342 82.2812 145.547C82.4517 145.749 82.6747 145.905 82.9503 146.016C83.2259 146.126 83.5313 146.182 83.8665 146.182C84.2415 146.182 84.5739 146.116 84.8636 145.986C85.1534 145.855 85.3807 145.673 85.5455 145.44C85.7102 145.207 85.7926 144.938 85.7926 144.631C85.7926 144.31 85.7131 144.027 85.554 143.783C85.3949 143.536 85.1619 143.342 84.8551 143.203C84.5483 143.064 84.1733 142.994 83.7301 142.994H83.0312V142.057H83.7301C84.0767 142.057 84.3807 141.994 84.642 141.869C84.9063 141.744 85.1122 141.568 85.2599 141.341C85.4105 141.114 85.4858 140.847 85.4858 140.54C85.4858 140.244 85.4205 139.987 85.2898 139.768C85.1591 139.55 84.9744 139.379 84.7358 139.257C84.5 139.135 84.2216 139.074 83.9006 139.074C83.5994 139.074 83.3153 139.129 83.0483 139.24C82.7841 139.348 82.5682 139.506 82.4006 139.713C82.233 139.918 82.142 140.165 82.1278 140.455H81.1051C81.1222 139.997 81.2599 139.597 81.5185 139.253C81.777 138.906 82.1151 138.636 82.5327 138.443C82.9531 138.25 83.4148 138.153 83.9176 138.153C84.4574 138.153 84.9205 138.263 85.3068 138.482C85.6932 138.697 85.9901 138.983 86.1974 139.338C86.4048 139.693 86.5085 140.077 86.5085 140.489C86.5085 140.98 86.3793 141.399 86.1207 141.746C85.8651 142.092 85.517 142.332 85.0767 142.466V142.534C85.6278 142.625 86.0582 142.859 86.3679 143.237C86.6776 143.612 86.8324 144.077 86.8324 144.631C86.8324 145.105 86.7031 145.531 86.4446 145.909C86.1889 146.284 85.8395 146.58 85.3963 146.795C84.9531 147.011 84.4489 147.119 83.8835 147.119ZM95.7173 142.168V143.105H91.8991V142.168H95.7173ZM100.845 147V146.233L103.725 143.08C104.064 142.71 104.342 142.389 104.561 142.116C104.779 141.841 104.941 141.582 105.047 141.341C105.154 141.097 105.208 140.841 105.208 140.574C105.208 140.267 105.135 140.001 104.987 139.777C104.842 139.553 104.643 139.379 104.39 139.257C104.137 139.135 103.853 139.074 103.538 139.074C103.203 139.074 102.91 139.143 102.66 139.283C102.413 139.419 102.221 139.611 102.085 139.858C101.951 140.105 101.885 140.395 101.885 140.727H100.879C100.879 140.216 100.997 139.767 101.233 139.381C101.468 138.994 101.789 138.693 102.196 138.477C102.605 138.261 103.064 138.153 103.572 138.153C104.083 138.153 104.537 138.261 104.931 138.477C105.326 138.693 105.636 138.984 105.86 139.351C106.085 139.717 106.197 140.125 106.197 140.574C106.197 140.895 106.139 141.209 106.022 141.516C105.909 141.82 105.71 142.159 105.426 142.534C105.145 142.906 104.754 143.361 104.254 143.898L102.294 145.994V146.062H106.35V147H100.845ZM110.957 147.119C110.315 147.119 109.768 146.945 109.316 146.595C108.865 146.243 108.52 145.733 108.281 145.065C108.042 144.395 107.923 143.585 107.923 142.636C107.923 141.693 108.042 140.888 108.281 140.22C108.522 139.55 108.869 139.038 109.321 138.686C109.775 138.331 110.321 138.153 110.957 138.153C111.593 138.153 112.137 138.331 112.589 138.686C113.044 139.038 113.39 139.55 113.629 140.22C113.87 140.888 113.991 141.693 113.991 142.636C113.991 143.585 113.872 144.395 113.633 145.065C113.395 145.733 113.049 146.243 112.598 146.595C112.146 146.945 111.599 147.119 110.957 147.119ZM110.957 146.182C111.593 146.182 112.088 145.875 112.44 145.261C112.792 144.648 112.968 143.773 112.968 142.636C112.968 141.881 112.887 141.237 112.725 140.706C112.566 140.175 112.336 139.77 112.035 139.491C111.737 139.213 111.377 139.074 110.957 139.074C110.326 139.074 109.833 139.385 109.478 140.007C109.123 140.626 108.946 141.503 108.946 142.636C108.946 143.392 109.025 144.034 109.184 144.562C109.343 145.091 109.572 145.493 109.87 145.768C110.172 146.044 110.534 146.182 110.957 146.182ZM115.61 147V146.233L118.491 143.08C118.829 142.71 119.108 142.389 119.326 142.116C119.545 141.841 119.707 141.582 119.812 141.341C119.92 141.097 119.974 140.841 119.974 140.574C119.974 140.267 119.9 140.001 119.752 139.777C119.608 139.553 119.409 139.379 119.156 139.257C118.903 139.135 118.619 139.074 118.304 139.074C117.968 139.074 117.676 139.143 117.426 139.283C117.179 139.419 116.987 139.611 116.85 139.858C116.717 140.105 116.65 140.395 116.65 140.727H115.645C115.645 140.216 115.762 139.767 115.998 139.381C116.234 138.994 116.555 138.693 116.961 138.477C117.37 138.261 117.829 138.153 118.338 138.153C118.849 138.153 119.302 138.261 119.697 138.477C120.092 138.693 120.402 138.984 120.626 139.351C120.85 139.717 120.963 140.125 120.963 140.574C120.963 140.895 120.904 141.209 120.788 141.516C120.674 141.82 120.475 142.159 120.191 142.534C119.91 142.906 119.52 143.361 119.02 143.898L117.059 145.994V146.062H121.116V147H115.61ZM122.484 145.21V144.341L126.319 138.273H126.95V139.619H126.524L123.626 144.205V144.273H128.791V145.21H122.484ZM126.592 147V144.946V144.541V138.273H127.598V147H126.592Z" fill="#6B93AE"/>
<path d="M243 54C243 47.3726 248.373 42 255 42H1228C1234.63 42 1240 47.3726 1240 54V667C1240 673.627 1234.63 679 1228 679H255C248.373 679 243 673.627 243 667V54Z" fill="#FCFCFD"/>
<defs>
<linearGradient id="paint0_linear_540_8" x1="1280" y1="707.5" x2="-30.0001" y2="0.000148091" gradientUnits="userSpaceOnUse">
<stop stop-color="#387478"/>
<stop offset="1" stop-color="#E2F1E7"/>
</linearGradient>
</defs>
</svg>
