<svg width="1280" height="720" viewBox="0 0 1280 720" fill="none" xmlns="http://www.w3.org/2000/svg">
<rect width="1280" height="720" fill="url(#paint0_linear_530_17)"/>
<rect x="20" y="18" width="1240" height="686" rx="25" fill="white" fill-opacity="0.5"/>
<path d="M40 54C40 47.3726 45.3726 42 52 42H211C217.627 42 223 47.3726 223 54V667C223 673.627 217.627 679 211 679H52C45.3726 679 40 673.627 40 667V54Z" fill="#243642"/>
<path d="M66.2393 80.674C66.1882 80.1584 65.9688 79.7578 65.581 79.4723C65.1932 79.1868 64.6669 79.044 64.0021 79.044C63.5504 79.044 63.169 79.108 62.858 79.2358C62.5469 79.3594 62.3082 79.532 62.142 79.7536C61.9801 79.9751 61.8991 80.2266 61.8991 80.5078C61.8906 80.7422 61.9396 80.9467 62.0462 81.1214C62.157 81.2962 62.3082 81.4474 62.5 81.5753C62.6918 81.6989 62.9134 81.8075 63.1648 81.9013C63.4162 81.9908 63.6847 82.0675 63.9702 82.1314L65.1463 82.4126C65.7173 82.5405 66.2415 82.7109 66.7188 82.924C67.196 83.1371 67.6094 83.3991 67.9588 83.7102C68.3082 84.0213 68.5788 84.3878 68.7706 84.8097C68.9666 85.2315 69.0668 85.7152 69.071 86.2607C69.0668 87.0618 68.8622 87.7564 68.4574 88.3445C68.0568 88.9283 67.4773 89.3821 66.7188 89.706C65.9645 90.0256 65.0547 90.1854 63.9893 90.1854C62.9325 90.1854 62.0121 90.0234 61.228 89.6996C60.4482 89.3757 59.8388 88.8963 59.3999 88.2614C58.9652 87.6222 58.7372 86.8317 58.7159 85.8899H61.3942C61.424 86.3288 61.5497 86.6953 61.7713 86.9893C61.9972 87.2791 62.2976 87.4986 62.6726 87.6477C63.0518 87.7926 63.4801 87.8651 63.9574 87.8651C64.4261 87.8651 64.8331 87.7969 65.1783 87.6605C65.5277 87.5241 65.7983 87.3345 65.9901 87.0916C66.1818 86.8487 66.2777 86.5696 66.2777 86.2543C66.2777 85.9602 66.1903 85.7131 66.0156 85.5128C65.8452 85.3125 65.5938 85.142 65.2614 85.0014C64.9332 84.8608 64.5305 84.733 64.0533 84.6179L62.6278 84.2599C61.5241 83.9915 60.6527 83.5717 60.0135 83.0007C59.3743 82.4297 59.0568 81.6605 59.0611 80.6932C59.0568 79.9006 59.2678 79.2081 59.6939 78.6158C60.1243 78.0234 60.7145 77.5611 61.4645 77.2287C62.2145 76.8963 63.0668 76.7301 64.0213 76.7301C64.9929 76.7301 65.8409 76.8963 66.5653 77.2287C67.294 77.5611 67.8608 78.0234 68.2656 78.6158C68.6705 79.2081 68.8793 79.8942 68.892 80.674H66.2393ZM72.8903 90H69.9244L74.4435 76.9091H78.0103L82.5231 90H79.5572L76.2781 79.9006H76.1758L72.8903 90ZM72.7049 84.8544H79.7106V87.0149H72.7049V84.8544ZM84.0987 90V76.9091H86.8665V87.718H92.4787V90H84.0987ZM94.3116 90V76.9091H103.133V79.1911H97.0794V82.3104H102.679V84.5923H97.0794V87.718H103.158V90H94.3116ZM112.435 80.674C112.384 80.1584 112.164 79.7578 111.776 79.4723C111.388 79.1868 110.862 79.044 110.197 79.044C109.746 79.044 109.364 79.108 109.053 79.2358C108.742 79.3594 108.504 79.532 108.337 79.7536C108.175 79.9751 108.094 80.2266 108.094 80.5078C108.086 80.7422 108.135 80.9467 108.241 81.1214C108.352 81.2962 108.504 81.4474 108.695 81.5753C108.887 81.6989 109.109 81.8075 109.36 81.9013C109.612 81.9908 109.88 82.0675 110.165 82.1314L111.342 82.4126C111.913 82.5405 112.437 82.7109 112.914 82.924C113.391 83.1371 113.805 83.3991 114.154 83.7102C114.504 84.0213 114.774 84.3878 114.966 84.8097C115.162 85.2315 115.262 85.7152 115.266 86.2607C115.262 87.0618 115.058 87.7564 114.653 88.3445C114.252 88.9283 113.673 89.3821 112.914 89.706C112.16 90.0256 111.25 90.1854 110.185 90.1854C109.128 90.1854 108.207 90.0234 107.423 89.6996C106.643 89.3757 106.034 88.8963 105.595 88.2614C105.161 87.6222 104.933 86.8317 104.911 85.8899H107.589C107.619 86.3288 107.745 86.6953 107.967 86.9893C108.192 87.2791 108.493 87.4986 108.868 87.6477C109.247 87.7926 109.675 87.8651 110.153 87.8651C110.621 87.8651 111.028 87.7969 111.374 87.6605C111.723 87.5241 111.994 87.3345 112.185 87.0916C112.377 86.8487 112.473 86.5696 112.473 86.2543C112.473 85.9602 112.386 85.7131 112.211 85.5128C112.04 85.3125 111.789 85.142 111.457 85.0014C111.129 84.8608 110.726 84.733 110.249 84.6179L108.823 84.2599C107.719 83.9915 106.848 83.5717 106.209 83.0007C105.57 82.4297 105.252 81.6605 105.256 80.6932C105.252 79.9006 105.463 79.2081 105.889 78.6158C106.32 78.0234 106.91 77.5611 107.66 77.2287C108.41 76.8963 109.262 76.7301 110.217 76.7301C111.188 76.7301 112.036 76.8963 112.761 77.2287C113.489 77.5611 114.056 78.0234 114.461 78.6158C114.866 79.2081 115.075 79.8942 115.087 80.674H112.435ZM59.1378 112V98.9091H64.3026C65.2955 98.9091 66.1413 99.0987 66.8402 99.478C67.5391 99.853 68.0717 100.375 68.4382 101.044C68.8089 101.709 68.9943 102.476 68.9943 103.345C68.9943 104.214 68.8068 104.982 68.4318 105.646C68.0568 106.311 67.5135 106.829 66.8018 107.2C66.0945 107.57 65.2379 107.756 64.2322 107.756H60.9403V105.538H63.7848C64.3175 105.538 64.7564 105.446 65.1016 105.263C65.451 105.075 65.7109 104.817 65.8814 104.489C66.0561 104.157 66.1435 103.776 66.1435 103.345C66.1435 102.911 66.0561 102.531 65.8814 102.207C65.7109 101.879 65.451 101.626 65.1016 101.447C64.7521 101.263 64.3089 101.172 63.772 101.172H61.9055V112H59.1378ZM70.7921 112V98.9091H79.6131V101.191H73.5598V104.31H79.1593V106.592H73.5598V109.718H79.6387V112H70.7921ZM81.8136 112V98.9091H86.9783C87.967 98.9091 88.8107 99.0859 89.5096 99.4396C90.2127 99.7891 90.7475 100.286 91.114 100.929C91.4847 101.568 91.6701 102.32 91.6701 103.185C91.6701 104.055 91.4826 104.803 91.1076 105.429C90.7326 106.051 90.1893 106.528 89.4776 106.861C88.7702 107.193 87.9137 107.359 86.908 107.359H83.4499V105.135H86.4606C86.989 105.135 87.4279 105.062 87.7773 104.918C88.1268 104.773 88.3867 104.555 88.5572 104.266C88.7319 103.976 88.8192 103.616 88.8192 103.185C88.8192 102.751 88.7319 102.384 88.5572 102.086C88.3867 101.788 88.1246 101.562 87.771 101.408C87.4215 101.251 86.9805 101.172 86.4478 101.172H84.5813V112H81.8136ZM88.8832 106.043L92.1367 112H89.0813L85.8981 106.043H88.8832ZM93.6261 112V98.9091H102.294V101.191H96.3938V104.31H101.718V106.592H96.3938V112H93.6261ZM116.185 105.455C116.185 106.882 115.915 108.097 115.373 109.098C114.836 110.099 114.104 110.864 113.175 111.393C112.25 111.917 111.21 112.179 110.055 112.179C108.892 112.179 107.848 111.915 106.923 111.386C105.998 110.858 105.268 110.093 104.731 109.092C104.194 108.09 103.925 106.878 103.925 105.455C103.925 104.027 104.194 102.812 104.731 101.811C105.268 100.81 105.998 100.047 106.923 99.5227C107.848 98.9943 108.892 98.7301 110.055 98.7301C111.21 98.7301 112.25 98.9943 113.175 99.5227C114.104 100.047 114.836 100.81 115.373 101.811C115.915 102.812 116.185 104.027 116.185 105.455ZM113.379 105.455C113.379 104.53 113.241 103.75 112.964 103.115C112.691 102.48 112.305 101.999 111.807 101.67C111.308 101.342 110.724 101.178 110.055 101.178C109.386 101.178 108.802 101.342 108.304 101.67C107.805 101.999 107.417 102.48 107.14 103.115C106.868 103.75 106.731 104.53 106.731 105.455C106.731 106.379 106.868 107.159 107.14 107.794C107.417 108.429 107.805 108.911 108.304 109.239C108.802 109.567 109.386 109.731 110.055 109.731C110.724 109.731 111.308 109.567 111.807 109.239C112.305 108.911 112.691 108.429 112.964 107.794C113.241 107.159 113.379 106.379 113.379 105.455ZM118.235 112V98.9091H123.4C124.389 98.9091 125.233 99.0859 125.931 99.4396C126.635 99.7891 127.169 100.286 127.536 100.929C127.907 101.568 128.092 102.32 128.092 103.185C128.092 104.055 127.904 104.803 127.529 105.429C127.154 106.051 126.611 106.528 125.9 106.861C125.192 107.193 124.336 107.359 123.33 107.359H119.872V105.135H122.882C123.411 105.135 123.85 105.062 124.199 104.918C124.549 104.773 124.809 104.555 124.979 104.266C125.154 103.976 125.241 103.616 125.241 103.185C125.241 102.751 125.154 102.384 124.979 102.086C124.809 101.788 124.547 101.562 124.193 101.408C123.843 101.251 123.402 101.172 122.87 101.172H121.003V112H118.235ZM125.305 106.043L128.559 112H125.503L122.32 106.043H125.305ZM130.048 98.9091H133.461L137.066 107.705H137.22L140.825 98.9091H144.238V112H141.554V103.479H141.445L138.057 111.936H136.229L132.841 103.447H132.733V112H130.048V98.9091ZM148.775 112H145.809L150.328 98.9091H153.895L158.408 112H155.442L152.163 101.901H152.061L148.775 112ZM148.59 106.854H155.595V109.015H148.59V106.854ZM170.933 98.9091V112H168.542L162.847 103.761H162.751V112H159.983V98.9091H162.412L168.063 107.142H168.178V98.9091H170.933ZM184.77 103.492H181.971C181.919 103.13 181.815 102.808 181.657 102.527C181.5 102.241 181.297 101.999 181.05 101.798C180.803 101.598 180.517 101.445 180.194 101.338C179.874 101.232 179.527 101.178 179.152 101.178C178.474 101.178 177.884 101.347 177.381 101.683C176.878 102.016 176.488 102.501 176.211 103.141C175.934 103.776 175.796 104.547 175.796 105.455C175.796 106.388 175.934 107.172 176.211 107.807C176.493 108.442 176.885 108.921 177.387 109.245C177.89 109.569 178.472 109.731 179.132 109.731C179.503 109.731 179.846 109.682 180.162 109.584C180.481 109.486 180.765 109.343 181.012 109.156C181.259 108.964 181.463 108.732 181.625 108.459C181.792 108.186 181.907 107.875 181.971 107.526L184.77 107.538C184.698 108.139 184.517 108.719 184.227 109.277C183.941 109.831 183.556 110.327 183.07 110.766C182.588 111.201 182.013 111.546 181.344 111.802C180.679 112.053 179.927 112.179 179.088 112.179C177.92 112.179 176.876 111.915 175.956 111.386C175.039 110.858 174.315 110.093 173.782 109.092C173.254 108.09 172.99 106.878 172.99 105.455C172.99 104.027 173.258 102.812 173.795 101.811C174.332 100.81 175.061 100.047 175.981 99.5227C176.902 98.9943 177.937 98.7301 179.088 98.7301C179.846 98.7301 180.549 98.8366 181.197 99.0497C181.849 99.2628 182.426 99.5739 182.929 99.983C183.432 100.388 183.841 100.884 184.157 101.472C184.476 102.06 184.681 102.734 184.77 103.492ZM186.755 112V98.9091H195.576V101.191H189.523V104.31H195.122V106.592H189.523V109.718H195.602V112H186.755Z" fill="white"/>
<path d="M58.9034 147V146.233L61.7841 143.08C62.1222 142.71 62.4006 142.389 62.6193 142.116C62.8381 141.841 63 141.582 63.1051 141.341C63.2131 141.097 63.267 140.841 63.267 140.574C63.267 140.267 63.1932 140.001 63.0455 139.777C62.9006 139.553 62.7017 139.379 62.4489 139.257C62.196 139.135 61.9119 139.074 61.5966 139.074C61.2614 139.074 60.9688 139.143 60.7188 139.283C60.4716 139.419 60.2798 139.611 60.1435 139.858C60.0099 140.105 59.9432 140.395 59.9432 140.727H58.9375C58.9375 140.216 59.0554 139.767 59.2912 139.381C59.527 138.994 59.848 138.693 60.2543 138.477C60.6634 138.261 61.1222 138.153 61.6307 138.153C62.142 138.153 62.5952 138.261 62.9901 138.477C63.3849 138.693 63.6946 138.984 63.919 139.351C64.1435 139.717 64.2557 140.125 64.2557 140.574C64.2557 140.895 64.1974 141.209 64.081 141.516C63.9673 141.82 63.7685 142.159 63.4844 142.534C63.2031 142.906 62.8125 143.361 62.3125 143.898L60.3523 145.994V146.062H64.4091V147H58.9034ZM69.0156 147.119C68.3736 147.119 67.8267 146.945 67.375 146.595C66.9233 146.243 66.5781 145.733 66.3395 145.065C66.1009 144.395 65.9815 143.585 65.9815 142.636C65.9815 141.693 66.1009 140.888 66.3395 140.22C66.581 139.55 66.9276 139.038 67.3793 138.686C67.8338 138.331 68.3793 138.153 69.0156 138.153C69.652 138.153 70.196 138.331 70.6477 138.686C71.1023 139.038 71.4489 139.55 71.6875 140.22C71.929 140.888 72.0497 141.693 72.0497 142.636C72.0497 143.585 71.9304 144.395 71.6918 145.065C71.4531 145.733 71.108 146.243 70.6562 146.595C70.2045 146.945 69.6577 147.119 69.0156 147.119ZM69.0156 146.182C69.652 146.182 70.1463 145.875 70.4986 145.261C70.8509 144.648 71.027 143.773 71.027 142.636C71.027 141.881 70.946 141.237 70.7841 140.706C70.625 140.175 70.3949 139.77 70.0938 139.491C69.7955 139.213 69.4361 139.074 69.0156 139.074C68.3849 139.074 67.892 139.385 67.5369 140.007C67.1818 140.626 67.0043 141.503 67.0043 142.636C67.0043 143.392 67.0838 144.034 67.2429 144.562C67.402 145.091 67.6307 145.493 67.929 145.768C68.2301 146.044 68.5923 146.182 69.0156 146.182ZM73.669 147V146.233L76.5497 143.08C76.8878 142.71 77.1662 142.389 77.3849 142.116C77.6037 141.841 77.7656 141.582 77.8707 141.341C77.9787 141.097 78.0327 140.841 78.0327 140.574C78.0327 140.267 77.9588 140.001 77.8111 139.777C77.6662 139.553 77.4673 139.379 77.2145 139.257C76.9616 139.135 76.6776 139.074 76.3622 139.074C76.027 139.074 75.7344 139.143 75.4844 139.283C75.2372 139.419 75.0455 139.611 74.9091 139.858C74.7756 140.105 74.7088 140.395 74.7088 140.727H73.7031C73.7031 140.216 73.821 139.767 74.0568 139.381C74.2926 138.994 74.6136 138.693 75.0199 138.477C75.429 138.261 75.8878 138.153 76.3963 138.153C76.9077 138.153 77.3608 138.261 77.7557 138.477C78.1506 138.693 78.4602 138.984 78.6847 139.351C78.9091 139.717 79.0213 140.125 79.0213 140.574C79.0213 140.895 78.9631 141.209 78.8466 141.516C78.733 141.82 78.5341 142.159 78.25 142.534C77.9688 142.906 77.5781 143.361 77.0781 143.898L75.1179 145.994V146.062H79.1747V147H73.669ZM83.8835 147.119C83.321 147.119 82.8196 147.023 82.3793 146.83C81.9418 146.636 81.5938 146.368 81.3352 146.024C81.0795 145.678 80.9403 145.276 80.9176 144.818H81.9915C82.0142 145.099 82.1108 145.342 82.2812 145.547C82.4517 145.749 82.6747 145.905 82.9503 146.016C83.2259 146.126 83.5313 146.182 83.8665 146.182C84.2415 146.182 84.5739 146.116 84.8636 145.986C85.1534 145.855 85.3807 145.673 85.5455 145.44C85.7102 145.207 85.7926 144.938 85.7926 144.631C85.7926 144.31 85.7131 144.027 85.554 143.783C85.3949 143.536 85.1619 143.342 84.8551 143.203C84.5483 143.064 84.1733 142.994 83.7301 142.994H83.0312V142.057H83.7301C84.0767 142.057 84.3807 141.994 84.642 141.869C84.9063 141.744 85.1122 141.568 85.2599 141.341C85.4105 141.114 85.4858 140.847 85.4858 140.54C85.4858 140.244 85.4205 139.987 85.2898 139.768C85.1591 139.55 84.9744 139.379 84.7358 139.257C84.5 139.135 84.2216 139.074 83.9006 139.074C83.5994 139.074 83.3153 139.129 83.0483 139.24C82.7841 139.348 82.5682 139.506 82.4006 139.713C82.233 139.918 82.142 140.165 82.1278 140.455H81.1051C81.1222 139.997 81.2599 139.597 81.5185 139.253C81.777 138.906 82.1151 138.636 82.5327 138.443C82.9531 138.25 83.4148 138.153 83.9176 138.153C84.4574 138.153 84.9205 138.263 85.3068 138.482C85.6932 138.697 85.9901 138.983 86.1974 139.338C86.4048 139.693 86.5085 140.077 86.5085 140.489C86.5085 140.98 86.3793 141.399 86.1207 141.746C85.8651 142.092 85.517 142.332 85.0767 142.466V142.534C85.6278 142.625 86.0582 142.859 86.3679 143.237C86.6776 143.612 86.8324 144.077 86.8324 144.631C86.8324 145.105 86.7031 145.531 86.4446 145.909C86.1889 146.284 85.8395 146.58 85.3963 146.795C84.9531 147.011 84.4489 147.119 83.8835 147.119ZM95.7173 142.168V143.105H91.8991V142.168H95.7173ZM100.845 147V146.233L103.725 143.08C104.064 142.71 104.342 142.389 104.561 142.116C104.779 141.841 104.941 141.582 105.047 141.341C105.154 141.097 105.208 140.841 105.208 140.574C105.208 140.267 105.135 140.001 104.987 139.777C104.842 139.553 104.643 139.379 104.39 139.257C104.137 139.135 103.853 139.074 103.538 139.074C103.203 139.074 102.91 139.143 102.66 139.283C102.413 139.419 102.221 139.611 102.085 139.858C101.951 140.105 101.885 140.395 101.885 140.727H100.879C100.879 140.216 100.997 139.767 101.233 139.381C101.468 138.994 101.789 138.693 102.196 138.477C102.605 138.261 103.064 138.153 103.572 138.153C104.083 138.153 104.537 138.261 104.931 138.477C105.326 138.693 105.636 138.984 105.86 139.351C106.085 139.717 106.197 140.125 106.197 140.574C106.197 140.895 106.139 141.209 106.022 141.516C105.909 141.82 105.71 142.159 105.426 142.534C105.145 142.906 104.754 143.361 104.254 143.898L102.294 145.994V146.062H106.35V147H100.845ZM110.957 147.119C110.315 147.119 109.768 146.945 109.316 146.595C108.865 146.243 108.52 145.733 108.281 145.065C108.042 144.395 107.923 143.585 107.923 142.636C107.923 141.693 108.042 140.888 108.281 140.22C108.522 139.55 108.869 139.038 109.321 138.686C109.775 138.331 110.321 138.153 110.957 138.153C111.593 138.153 112.137 138.331 112.589 138.686C113.044 139.038 113.39 139.55 113.629 140.22C113.87 140.888 113.991 141.693 113.991 142.636C113.991 143.585 113.872 144.395 113.633 145.065C113.395 145.733 113.049 146.243 112.598 146.595C112.146 146.945 111.599 147.119 110.957 147.119ZM110.957 146.182C111.593 146.182 112.088 145.875 112.44 145.261C112.792 144.648 112.968 143.773 112.968 142.636C112.968 141.881 112.887 141.237 112.725 140.706C112.566 140.175 112.336 139.77 112.035 139.491C111.737 139.213 111.377 139.074 110.957 139.074C110.326 139.074 109.833 139.385 109.478 140.007C109.123 140.626 108.946 141.503 108.946 142.636C108.946 143.392 109.025 144.034 109.184 144.562C109.343 145.091 109.572 145.493 109.87 145.768C110.172 146.044 110.534 146.182 110.957 146.182ZM115.61 147V146.233L118.491 143.08C118.829 142.71 119.108 142.389 119.326 142.116C119.545 141.841 119.707 141.582 119.812 141.341C119.92 141.097 119.974 140.841 119.974 140.574C119.974 140.267 119.9 140.001 119.752 139.777C119.608 139.553 119.409 139.379 119.156 139.257C118.903 139.135 118.619 139.074 118.304 139.074C117.968 139.074 117.676 139.143 117.426 139.283C117.179 139.419 116.987 139.611 116.85 139.858C116.717 140.105 116.65 140.395 116.65 140.727H115.645C115.645 140.216 115.762 139.767 115.998 139.381C116.234 138.994 116.555 138.693 116.961 138.477C117.37 138.261 117.829 138.153 118.338 138.153C118.849 138.153 119.302 138.261 119.697 138.477C120.092 138.693 120.402 138.984 120.626 139.351C120.85 139.717 120.963 140.125 120.963 140.574C120.963 140.895 120.904 141.209 120.788 141.516C120.674 141.82 120.475 142.159 120.191 142.534C119.91 142.906 119.52 143.361 119.02 143.898L117.059 145.994V146.062H121.116V147H115.61ZM122.484 145.21V144.341L126.319 138.273H126.95V139.619H126.524L123.626 144.205V144.273H128.791V145.21H122.484ZM126.592 147V144.946V144.541V138.273H127.598V147H126.592Z" fill="#6B93AE"/>
<path d="M243 54C243 47.3726 248.373 42 255 42H618C624.627 42 630 47.3726 630 54V667C630 673.627 624.627 679 618 679H255C248.373 679 243 673.627 243 667V54Z" fill="#FCFCFD"/>
<path d="M650 54C650 47.3726 655.373 42 662 42H1228C1234.63 42 1240 47.3726 1240 54V667C1240 673.627 1234.63 679 1228 679H662C655.373 679 650 673.627 650 667V54Z" fill="#FCFCFD"/>
<path d="M650 54C650 47.3726 655.373 42 662 42H1228C1234.63 42 1240 47.3726 1240 54V171C1240 177.627 1234.63 183 1228 183H662C655.373 183 650 177.627 650 171V54Z" fill="#243642"/>
<defs>
<linearGradient id="paint0_linear_530_17" x1="1280" y1="707.5" x2="-30.0001" y2="0.000148091" gradientUnits="userSpaceOnUse">
<stop stop-color="#387478"/>
<stop offset="1" stop-color="#E2F1E7"/>
</linearGradient>
</defs>
</svg>
